<?xml version="1.0" standalone="no"?><!DOCTYPE svg PUBLIC "-//W3C//DTD SVG 1.1//EN" "http://www.w3.org/Graphics/SVG/1.1/DTD/svg11.dtd"><svg t="1769745808518" class="icon" viewBox="0 0 1024 1024" version="1.1" xmlns="http://www.w3.org/2000/svg" p-id="16765" xmlns:xlink="http://www.w3.org/1999/xlink" width="256" height="256"><path d="M512 1002.016C241.376 1002.016 21.984 782.624 21.984 512S241.376 21.984 512 21.984 1002.016 241.376 1002.016 512 782.624 1002.016 512 1002.016z m-53.504-543.296H271.488a53.504 53.504 0 1 0 0 107.008h187.008v187.232a53.504 53.504 0 1 0 107.008 0v-187.232h187.008a53.504 53.504 0 1 0 0-107.008h-187.008V271.488a53.504 53.504 0 1 0-107.008 0v187.232z" p-id="16766" fill="#1296db"></path></svg>