<?xml version="1.0" standalone="no"?><!DOCTYPE svg PUBLIC "-//W3C//DTD SVG 1.1//EN" "http://www.w3.org/Graphics/SVG/1.1/DTD/svg11.dtd"><svg t="1769745788258" class="icon" viewBox="0 0 1024 1024" version="1.1" xmlns="http://www.w3.org/2000/svg" p-id="15732" xmlns:xlink="http://www.w3.org/1999/xlink" width="256" height="256"><path d="M501.288703 19.280335C235.648536 19.280335 19.280335 235.648536 19.280335 501.288703S235.648536 983.297071 501.288703 983.297071s482.008368-216.368201 482.008368-482.008368S766.92887 19.280335 501.288703 19.280335z m246.359833 471.297071h-42.845189c-23.564854 0-21.422594 21.422594-21.422594 21.422594v235.648536h-128.535565v-149.958159c0-23.564854-21.422594-21.422594-21.422594-21.422595h-85.690376c-23.564854 0-21.422594 21.422594-21.422595 21.422595v149.958159h-128.535564l-2.14226-257.07113h-42.845188v-21.422594h21.422594v-21.422594h21.422594v-21.422595h21.422594v-21.422594h21.422594v-21.422594h21.422595v-21.422594h21.422594v-21.422594h21.422594v-21.422594h21.422594v-21.422594h21.422594v-21.422595h21.422594v-21.422594h42.845189v21.422594h21.422594v21.422595h21.422594v21.422594h21.422594v21.422594h40.702929l4.284519-42.845188h42.845188c6.426778 12.853556 2.142259 107.112971 2.142259 107.11297h19.280335v21.422594h21.422594v21.422595h21.422594v21.422594h21.422595v21.422594z" fill="#55B6FF" p-id="15733"></path></svg>