<?xml version="1.0" standalone="no"?><!DOCTYPE svg PUBLIC "-//W3C//DTD SVG 1.1//EN" "http://www.w3.org/Graphics/SVG/1.1/DTD/svg11.dtd"><svg t="1769847225151" class="icon" viewBox="0 0 1024 1024" version="1.1" xmlns="http://www.w3.org/2000/svg" p-id="11102" xmlns:xlink="http://www.w3.org/1999/xlink" width="256" height="256"><path d="M858.98144 108l0 41.728q0 16.576-10.56 34.848t-24.288 18.272q-28.576 0-30.848 0.576-14.848 3.424-18.272 17.728-1.728 6.272-1.728 36.576l0 658.272q0 14.272-10.272 24.576t-24.576 10.272l-61.728 0q-14.272 0-24.576-10.272t-10.272-24.576l0-696-81.728 0 0 696q0 14.272-10.016 24.576t-24.864 10.272l-61.728 0q-14.848 0-24.864-10.272t-10.016-24.576l0-283.424q-84-6.848-140-33.728-72-33.152-109.728-102.272-36.576-66.848-36.576-148 0-94.848 50.272-163.424 50.272-67.424 119.424-90.848 63.424-21.152 238.272-21.152l273.728 0q14.272 0 24.576 10.272t10.272 24.576z" p-id="11103"></path></svg>