<?xml version="1.0" standalone="no"?><!DOCTYPE svg PUBLIC "-//W3C//DTD SVG 1.1//EN" "http://www.w3.org/Graphics/SVG/1.1/DTD/svg11.dtd"><svg t="1769705065323" class="icon" viewBox="0 0 1024 1024" version="1.1" xmlns="http://www.w3.org/2000/svg" p-id="6481" width="256" height="256" xmlns:xlink="http://www.w3.org/1999/xlink"><path d="M512.162519 0A511.837326 511.837326 0 0 1 1023.999845 511.992475 511.992475 511.992475 0 1 1 512.162519 0zM760.246146 760.231251v-88.435064c0.201694-42.200592-19.812557-82.18255-54.348777-108.542405a307.785052 307.785052 0 0 0-102.894973-50.051143c48.840979-36.972063 67.815731-99.404115 47.320517-155.599167C629.827699 301.408419 574.330817 263.753699 512.00737 263.753699c-62.323448 0-117.820329 37.654719-138.315543 93.865288-20.495214 56.179538-1.520463 118.61159 47.320517 155.583652a306.311135 306.311135 0 0 0-102.894973 50.051143C283.581151 589.613637 263.5669 629.595595 263.768594 671.796187V760.231251h496.477552z m-72.470208-167.312935c26.297795 20.184915 41.548965 50.76483 41.440361 83.035871V729.201404H294.798441v-53.247217c-0.108604-32.271041 15.142565-62.83544 41.440361-83.035871A284.000675 284.000675 0 0 1 446.425788 543.022322h131.163163a284.000675 284.000675 0 0 1 110.186987 49.895994zM511.200594 511.992475h0.636112a108.604464 108.604464 0 1 1 100.288465-66.512477A108.604464 108.604464 0 0 1 511.200594 511.992475z" fill="#13227a" p-id="6482"></path></svg>