<?xml version="1.0" standalone="no"?><!DOCTYPE svg PUBLIC "-//W3C//DTD SVG 1.1//EN" "http://www.w3.org/Graphics/SVG/1.1/DTD/svg11.dtd"><svg t="1769847333431" class="icon" viewBox="0 0 1024 1024" version="1.1" xmlns="http://www.w3.org/2000/svg" p-id="15164" xmlns:xlink="http://www.w3.org/1999/xlink" width="256" height="256"><path d="M250.615951 672.933084L0.204584 422.317133l66.694531-66.694531a70.78622 70.78622 0 0 1 76.514584-15.343833l169.19134 69.149544L638.508068 159.016946l-87.152976-87.35756L601.273698 20.717858a70.990804 70.990804 0 0 1 100.24638 0l50.123191 50.12319 200.49276 200.492761 50.53236 50.941528a70.78622 70.78622 0 0 1 0 100.246381l-50.123191 50.12319-87.35756-87.152976-251.229704 325.49386 69.354128 168.986755a70.78622 70.78622 0 0 1-15.343833 77.332922l-66.694531 65.876193-250.411367-249.797613L100.655549 1023.181662H0.204584v-100.24638l250.411367-250.002198z m0 0" fill="#2c2c2c" p-id="15165"></path></svg>