<?xml version="1.0" standalone="no"?><!DOCTYPE svg PUBLIC "-//W3C//DTD SVG 1.1//EN" "http://www.w3.org/Graphics/SVG/1.1/DTD/svg11.dtd"><svg t="1769847325253" class="icon" viewBox="0 0 1024 1024" version="1.1" xmlns="http://www.w3.org/2000/svg" p-id="15003" xmlns:xlink="http://www.w3.org/1999/xlink" width="256" height="256"><path d="M341.3504 128c0-23.552 19.0976-42.6496 42.6496-42.6496h256a42.6496 42.6496 0 0 1 0 85.2992h-256a42.6496 42.6496 0 0 1-42.6496-42.6496zM128 263.5264c0-23.552 19.0976-42.6496 42.6496-42.6496h682.7008a42.6496 42.6496 0 0 1 0 85.2992h-44.544V312.32l-19.456 494.2848c-0.512 70.7584-55.3984 132.096-128 132.096H362.6496c-72.6016 0-127.488-61.3376-128-132.096L215.1936 312.32a88.8832 88.8832 0 0 1 0-6.0928h-44.544a42.6496 42.6496 0 0 1-42.6496-42.6496z m173.2096 42.6496a4.096 4.096 0 0 0-0.7168 2.7136l19.5072 495.9232v0.8192c0 28.672 21.3504 47.7184 42.6496 47.7184h298.7008c21.2992 0 42.6496-19.0464 42.6496-47.7184v-0.8192l19.5072-495.9232a4.096 4.096 0 0 0-0.7168-2.7136H301.2096z m125.44 95.3856c23.552 0 42.7008 19.0976 42.7008 42.6496v271.104a42.6496 42.6496 0 0 1-85.3504 0V444.2112c0-23.552 19.0976-42.6496 42.6496-42.6496z m170.7008 0c23.552 0 42.6496 19.0976 42.6496 42.6496v271.104a42.6496 42.6496 0 0 1-85.3504 0V444.2112c0-23.552 19.0976-42.6496 42.7008-42.6496z" p-id="15004"></path></svg>