<?xml version="1.0" standalone="no"?><!DOCTYPE svg PUBLIC "-//W3C//DTD SVG 1.1//EN" "http://www.w3.org/Graphics/SVG/1.1/DTD/svg11.dtd"><svg t="1769847170162" class="icon" viewBox="0 0 1024 1024" version="1.1" xmlns="http://www.w3.org/2000/svg" p-id="9971" xmlns:xlink="http://www.w3.org/1999/xlink" width="256" height="256"><path d="M396.8 307.2h273.92L588.8 253.44c-12.8-7.68-15.36-23.04-7.68-35.84 7.68-12.8 23.04-15.36 35.84-7.68l153.6 102.4c7.68 5.12 10.24 12.8 10.24 20.48s-5.12 15.36-10.24 20.48l-153.6 102.4c-2.56 5.12-7.68 5.12-12.8 5.12-7.68 0-15.36-5.12-20.48-10.24-7.68-12.8-5.12-28.16 7.68-35.84l84.48-56.32H396.8c-112.64 0-204.8 92.16-204.8 204.8s92.16 204.8 204.8 204.8h460.8c15.36 0 25.6 10.24 25.6 25.6s-10.24 25.6-25.6 25.6h-460.8c-140.8 0-256-115.2-256-256s115.2-256 256-256z" fill="#2c2c2c" p-id="9972"></path></svg>